# xmcd CD database file
#
# Track frame offsets:
#	150
#	20987
#	81567
#	89212
#	105450
#	126345
#	151387
#	180955
#	202862
#
# Disc length: 2991 seconds
#
# Revision: 0
# Processed by: cddbd v1.5.2PL0 Copyright (c) Steve Scherf et al.
# Submitted via: CDex 1.77
#
DISCID=760bad09
DTITLE=Convergence - Mozart For A New Age
DYEAR=1992
DGENRE=New Age
TTITLE0=Midnight magic - from Eine kleine Nachtmusik
TTITLE1=Ring around the cosmos - from Rondo KV. 485 and Walk in the woods - from Serenade KV. 361
TTITLE2=Don's glass is full - the champagne aria from Don Giovanni, KV. 527
TTITLE3=Three rail shot - from Rondo K. 331
TTITLE4=Living in minor time - from Symphony no. 40, KV. 467
TTITLE5=Celluloid summer - (Elvira Madigan theme) - from Piano concerto no. 21, KV. 467 
TTITLE6=Planetarium - from Sympohny no. 41 "Jupiter"
TTITLE7=At the post - from Serenade, KV. 320
TTITLE8=Nuptial shuffle - from The marriage of Figaro
EXTD=YEAR: 1992
EXTT0=
EXTT1=
EXTT2=
EXTT3=
EXTT4=
EXTT5=
EXTT6=
EXTT7=
EXTT8=
PLAYORDER=
